<?xml version="1.0" encoding="utf-8"?>
<!-- Generator: Adobe Illustrator 27.7.0, SVG Export Plug-In . SVG Version: 6.00 Build 0)  -->
<svg version="1.1" id="Layer_1" xmlns="http://www.w3.org/2000/svg" xmlns:xlink="http://www.w3.org/1999/xlink" x="0px" y="0px"
	 viewBox="0 0 256 256" style="enable-background:new 0 0 256 256;" xml:space="preserve">
<style type="text/css">
	.st0{fill:#FF4500;}
	.st1{fill:url(#SVGID_1_);}
	.st2{fill:url(#SVGID_00000172441704899744678530000002575230828314408345_);}
	.st3{fill:url(#SVGID_00000173852422731193094000000014899201237845376654_);}
	.st4{fill:#842123;}
	.st5{fill:url(#SVGID_00000143616148139915630750000009040558003708427665_);}
	.st6{fill:url(#SVGID_00000157987468941197763400000000663422557594842273_);}
	.st7{fill:#BBCFDA;}
	.st8{fill:#FFFFFF;}
	.st9{fill:url(#SVGID_00000106868658309857236170000007260872521968681902_);}
	.st10{fill:url(#SVGID_00000091734766420634961600000002609408405307921802_);}
	.st11{fill:url(#SVGID_00000134958952978991237780000012222184903651130266_);}
	.st12{fill:#FF6101;}
	.st13{fill:#FFC49C;}
</style>
<path class="st0" d="M128,0L128,0C57.3,0,0,57.3,0,128l0,0c0,35.4,14.3,67.4,37.5,90.5l-24.4,24.4c-4.8,4.8-1.4,13.1,5.4,13.1H128
	l0,0c70.7,0,128-57.3,128-128l0,0C256,57.3,198.7,0,128,0z"/>
<g>
	
		<radialGradient id="SVGID_1_" cx="124.0038" cy="491.0793" r="127.45" fx="124.0038" fy="481.9492" gradientTransform="matrix(0.47 0 0 -0.41 142.73 308.9)" gradientUnits="userSpaceOnUse">
		<stop  offset="0" style="stop-color:#FEFFFF"/>
		<stop  offset="0.4" style="stop-color:#FEFFFF"/>
		<stop  offset="0.51" style="stop-color:#F9FCFC"/>
		<stop  offset="0.62" style="stop-color:#EDF3F5"/>
		<stop  offset="0.7" style="stop-color:#DEE9EC"/>
		<stop  offset="0.72" style="stop-color:#D8E4E8"/>
		<stop  offset="0.76" style="stop-color:#CCD8DF"/>
		<stop  offset="0.8" style="stop-color:#C8D5DD"/>
		<stop  offset="0.83" style="stop-color:#CCD6DE"/>
		<stop  offset="0.85" style="stop-color:#D8DBE2"/>
		<stop  offset="0.88" style="stop-color:#EDE3E9"/>
		<stop  offset="0.9" style="stop-color:#FFEBEF"/>
	</radialGradient>
	<circle class="st1" cx="200.6" cy="123.7" r="29.9"/>
	
		<radialGradient id="SVGID_00000147191211736614093690000013859938071047743379_" cx="-184.7621" cy="491.0793" r="127.45" fx="-184.7621" fy="481.9492" gradientTransform="matrix(0.47 0 0 -0.41 142.73 308.9)" gradientUnits="userSpaceOnUse">
		<stop  offset="0" style="stop-color:#FEFFFF"/>
		<stop  offset="0.4" style="stop-color:#FEFFFF"/>
		<stop  offset="0.51" style="stop-color:#F9FCFC"/>
		<stop  offset="0.62" style="stop-color:#EDF3F5"/>
		<stop  offset="0.7" style="stop-color:#DEE9EC"/>
		<stop  offset="0.72" style="stop-color:#D8E4E8"/>
		<stop  offset="0.76" style="stop-color:#CCD8DF"/>
		<stop  offset="0.8" style="stop-color:#C8D5DD"/>
		<stop  offset="0.83" style="stop-color:#CCD6DE"/>
		<stop  offset="0.85" style="stop-color:#D8DBE2"/>
		<stop  offset="0.88" style="stop-color:#EDE3E9"/>
		<stop  offset="0.9" style="stop-color:#FFEBEF"/>
	</radialGradient>
	<circle style="fill:url(#SVGID_00000147191211736614093690000013859938071047743379_);" cx="55.4" cy="123.7" r="29.9"/>
	
		<radialGradient id="SVGID_00000138532504605928640220000006678511886232201345_" cx="-26.3462" cy="465.6185" r="384.44" gradientTransform="matrix(0.47 0 0 -0.33 142.73 252.83)" gradientUnits="userSpaceOnUse">
		<stop  offset="0" style="stop-color:#FEFFFF"/>
		<stop  offset="0.4" style="stop-color:#FEFFFF"/>
		<stop  offset="0.51" style="stop-color:#F9FCFC"/>
		<stop  offset="0.62" style="stop-color:#EDF3F5"/>
		<stop  offset="0.7" style="stop-color:#DEE9EC"/>
		<stop  offset="0.72" style="stop-color:#D8E4E8"/>
		<stop  offset="0.76" style="stop-color:#CCD8DF"/>
		<stop  offset="0.8" style="stop-color:#C8D5DD"/>
		<stop  offset="0.83" style="stop-color:#CCD6DE"/>
		<stop  offset="0.85" style="stop-color:#D8DBE2"/>
		<stop  offset="0.88" style="stop-color:#EDE3E9"/>
		<stop  offset="0.9" style="stop-color:#FFEBEF"/>
	</radialGradient>
	
		<ellipse style="fill:url(#SVGID_00000138532504605928640220000006678511886232201345_);" cx="128.1" cy="149.3" rx="85.3" ry="64"/>
	<path class="st4" d="M102.8,143.1c-0.5,10.8-7.7,14.8-16.1,14.8s-14.8-5.6-14.3-16.4s7.7-18,16.1-18S103.3,132.3,102.8,143.1z"/>
	<path class="st4" d="M183.6,141.5c0.5,10.8-5.9,16.4-14.3,16.4s-15.6-3.9-16.1-14.8c-0.5-10.8,5.9-19.6,14.3-19.6
		S183.1,130.6,183.6,141.5L183.6,141.5z"/>
	
		<radialGradient id="SVGID_00000109733211953631210530000016555386099017102226_" cx="-580.2338" cy="-659.3314" r="32.12" gradientTransform="matrix(-0.47 0 0 0.69 -107.43 605.91)" gradientUnits="userSpaceOnUse">
		<stop  offset="0" style="stop-color:#FF6600"/>
		<stop  offset="0.5" style="stop-color:#FF4500"/>
		<stop  offset="0.7" style="stop-color:#FC4301"/>
		<stop  offset="0.82" style="stop-color:#F43F07"/>
		<stop  offset="0.92" style="stop-color:#E53812"/>
		<stop  offset="1" style="stop-color:#D4301F"/>
	</radialGradient>
	<path style="fill:url(#SVGID_00000109733211953631210530000016555386099017102226_);" d="M153.3,144.1c0.5,10.1,7.2,13.8,15,13.8
		s13.8-5.5,13.4-15.7c-0.5-10.1-7.2-16.8-15-16.8S152.8,133.9,153.3,144.1z"/>
	
		<radialGradient id="SVGID_00000083087489497750664230000005624731338213067149_" cx="-111.7862" cy="-659.3314" r="32.12" gradientTransform="matrix(0.47 0 0 0.69 142.73 605.91)" gradientUnits="userSpaceOnUse">
		<stop  offset="0" style="stop-color:#FF6600"/>
		<stop  offset="0.5" style="stop-color:#FF4500"/>
		<stop  offset="0.7" style="stop-color:#FC4301"/>
		<stop  offset="0.82" style="stop-color:#F43F07"/>
		<stop  offset="0.92" style="stop-color:#E53812"/>
		<stop  offset="1" style="stop-color:#D4301F"/>
	</radialGradient>
	<path style="fill:url(#SVGID_00000083087489497750664230000005624731338213067149_);" d="M102.8,144.1c-0.5,10.1-7.2,13.8-15,13.8
		s-13.8-5.5-13.3-15.7c0.5-10.1,7.2-16.8,15-16.8S103.3,133.9,102.8,144.1z"/>
	<path class="st7" d="M128.1,165.1c-10.6,0-20.7,0.5-30.1,1.4c-1.6,0.2-2.6,1.8-2,3.2c5.2,12.3,17.6,21,32.1,21s26.8-8.6,32.1-21
		c0.6-1.5-0.4-3.1-2-3.2C148.8,165.6,138.7,165.1,128.1,165.1z"/>
	<path class="st8" d="M128.1,167.5c-10.6,0-20.7,0.5-30,1.5c-1.6,0.2-2.6,1.8-2,3.3c5.2,12.5,17.6,21.3,32,21.3s26.8-8.8,32-21.3
		c0.6-1.5-0.4-3.1-2-3.3C148.7,168,138.6,167.5,128.1,167.5L128.1,167.5z"/>
	
		<radialGradient id="SVGID_00000090997559894939344930000006792156299100647076_" cx="-30.5562" cy="248.2977" r="113.26" gradientTransform="matrix(0.47 0 0 -0.31 142.73 271.88)" gradientUnits="userSpaceOnUse">
		<stop  offset="0" style="stop-color:#172E35"/>
		<stop  offset="0.29" style="stop-color:#0E1C21"/>
		<stop  offset="0.73" style="stop-color:#030708"/>
		<stop  offset="1" style="stop-color:#000000"/>
	</radialGradient>
	<path style="fill:url(#SVGID_00000090997559894939344930000006792156299100647076_);" d="M128.1,166.2c-10.4,0-20.3,0.5-29.5,1.4
		c-1.6,0.2-2.6,1.8-2,3.2c5.2,12.3,17.3,21,31.5,21s26.3-8.6,31.5-21c0.6-1.5-0.4-3.1-2-3.2C148.4,166.8,138.5,166.2,128.1,166.2z"
		/>
	
		<radialGradient id="SVGID_00000050653211609464143060000009154690018668787081_" cx="69.3238" cy="661.3062" r="99.42" gradientTransform="matrix(0.47 0 0 -0.47 142.73 344.92)" gradientUnits="userSpaceOnUse">
		<stop  offset="0" style="stop-color:#FEFFFF"/>
		<stop  offset="0.4" style="stop-color:#FEFFFF"/>
		<stop  offset="0.51" style="stop-color:#F9FCFC"/>
		<stop  offset="0.62" style="stop-color:#EDF3F5"/>
		<stop  offset="0.7" style="stop-color:#DEE9EC"/>
		<stop  offset="0.72" style="stop-color:#D8E4E8"/>
		<stop  offset="0.76" style="stop-color:#CCD8DF"/>
		<stop  offset="0.8" style="stop-color:#C8D5DD"/>
		<stop  offset="0.83" style="stop-color:#CCD6DE"/>
		<stop  offset="0.85" style="stop-color:#D8DBE2"/>
		<stop  offset="0.88" style="stop-color:#EDE3E9"/>
		<stop  offset="0.9" style="stop-color:#FFEBEF"/>
	</radialGradient>
	<circle style="fill:url(#SVGID_00000050653211609464143060000009154690018668787081_);" cx="174.8" cy="55.5" r="21.2"/>
	
		<radialGradient id="SVGID_00000006704644679187586700000006469388806754293183_" cx="27.8938" cy="560.9662" r="81.49" gradientTransform="matrix(0.47 0 0 -0.47 142.73 348.7)" gradientUnits="userSpaceOnUse">
		<stop  offset="0.48" style="stop-color:#7A9299"/>
		<stop  offset="0.67" style="stop-color:#172E35"/>
		<stop  offset="0.75" style="stop-color:#000000"/>
		<stop  offset="0.82" style="stop-color:#172E35"/>
	</radialGradient>
	<path style="fill:url(#SVGID_00000006704644679187586700000006469388806754293183_);" d="M127.8,88c-2.5,0-4.6-1.1-4.6-2.7
		c0-19,15.4-34.4,34.4-34.4c2.5,0,4.6,2.1,4.6,4.6s-2.1,4.6-4.6,4.6c-13.9,0-25.2,11.3-25.2,25.2C132.4,87,130.3,88,127.8,88z"/>
	<path class="st12" d="M97.3,149.1c0,3.9-4.2,5.7-9.3,5.7s-9.3-1.8-9.3-5.7s4.2-7.1,9.3-7.1S97.3,145.1,97.3,149.1z"/>
	<path class="st12" d="M177.5,149.1c0,3.9-4.2,5.7-9.3,5.7s-9.3-1.8-9.3-5.7s4.2-7.1,9.3-7.1S177.5,145.1,177.5,149.1z"/>
	<ellipse class="st13" cx="94.4" cy="134.8" rx="3.3" ry="3.6"/>
	<ellipse class="st13" cx="173.3" cy="134.8" rx="3.3" ry="3.6"/>
</g>
</svg>
