<svg fill="none" height="86" viewBox="0 0 102 86" width="102" xmlns="http://www.w3.org/2000/svg"><path d="m13.8937.547363c7.6732 0 13.8936 6.164377 13.8936 13.768437v10.3264c0 2.5347 2.0735 4.5895 4.6312 4.5895 2.5578 0 4.6312-2.0548 4.6312-4.5895v-10.3264c0-7.60406 6.2204-13.768437 13.8937-13.768437 7.6732 0 13.8934 6.164377 13.8934 13.768437v10.3264c0 2.5347 2.074 4.5895 4.6313 4.5895 2.5579 0 4.6313-2.0548 4.6313-4.5895v-10.3264c0-7.60406 6.2202-13.768437 13.894-13.768437 7.6732 0 13.8936 6.164377 13.8936 13.768437v43.6001c0 15.2083-12.4411 27.5371-27.7876 27.5371h-46.3121c-15.3465 0-27.7873-12.3288-27.7873-27.5371v-43.6001c0-7.60406 6.22036-13.768437 13.8937-13.768437zm37.0497 32.126537c.6761 0 1.2655.456 1.4296 1.1061l1.9178 7.6025c.3994 1.5826.5338 2.0411.7627 2.3954.2298.3561.5348.6583.894.8859.3577.227.8204.3605 2.4178.7562l7.6709 1.9002c.6561.1625 1.1163.7466 1.1163 1.4168s-.4602 1.2543-1.1163 1.4168l-7.6709 1.9007c-1.5974.3957-2.0601.5287-2.4178.7557-.3592.2275-.6642.5298-.894.8858-.2289.3544-.3633.8129-.7627 2.3961l-1.9178 7.6019c-.1641.6504-.7534 1.1066-1.4296 1.1066-.6761 0-1.2655-.4562-1.4296-1.1066l-1.9178-7.6019c-.3994-1.5832-.5338-2.0417-.7627-2.3961-.2298-.356-.5348-.6583-.894-.8858-.3577-.227-.8203-.36-2.4176-.7557l-7.6714-1.9007c-.656-.1625-1.1162-.7466-1.1162-1.4168s.4602-1.2543 1.1162-1.4168l7.6714-1.9002c1.5973-.3957 2.0599-.5292 2.4176-.7562.3592-.2276.6642-.5298.894-.8859.2289-.3543.3633-.8128.7627-2.3954l1.9178-7.6025c.1641-.6501.7534-1.1061 1.4296-1.1061z" fill="#fff" fill-rule="evenodd"/></svg>