<svg fill="none" height="48" viewBox="0 0 56 48" width="48" xmlns="http://www.w3.org/2000/svg"><path clip-rule="evenodd" d="m24.9785.409591c1.2365-.546122 2.648-.54612 3.8844-.000001.9549.421777 1.5753 1.16469 2.0069 1.77005.4244.59516.8788 1.37487 1.3785 2.23238l19.7593 33.90218c.5018.8607.9577 1.6428 1.2668 2.3066.3142.6746.6551 1.5814.5464 2.6164-.1405 1.3392-.8469 2.5562-1.9433 3.3481-.8473.6119-1.8081.7732-2.5532.8411-1.7507.1596-3.508-.1408-5.2179-.5518l-3.9505-.9493c-8.7016-2.091-17.7688-2.091-26.4704 0l-3.95045.9493c-1.70993.411-3.46718.7114-5.21788.5518-.74514-.0679-1.70595-.2292-2.55323-.8411-1.096379-.7919-1.802753-2.0089-1.9433171-3.3481-.1086276-1.035.2322111-1.9418.5463911-2.6164.309138-.6638.765056-1.4459 1.266766-2.3065l19.75942-33.90223c.4997-.85753.9541-1.63725 1.3785-2.23243.4316-.60536 1.0519-1.348274 2.0068-1.770049zm1.9429 15.031709c.4985 0 .933.3371 1.054.8175l1.4139 5.6181c.2944 1.1698.3936 1.5086.5623 1.7705.1695.2631.3943.4864.6591.6547.2637.1676.6048.2661 1.7824.5586l5.6559 1.4045c.4836.1201.8229.5518.8229 1.047s-.3393.9268-.8229 1.0469l-5.6559 1.4045c-1.1776.2925-1.5187.391-1.7824.5586-.2648.1683-.4896.3917-.6591.6547-.1687.262-.2679.6007-.5623 1.7705l-1.4139 5.6182c-.1209.4804-.5555.8174-1.054.8174s-.9331-.337-1.054-.8174l-1.414-5.6182c-.2944-1.1698-.3935-1.5085-.5623-1.7705-.1694-.263-.3943-.4864-.6591-.6547-.2637-.1676-.6047-.2661-1.7824-.5586l-5.6558-1.4045c-.4837-.1201-.823-.5517-.823-1.0469s.3393-.9269.823-1.047l5.6558-1.4045c1.1777-.2925 1.5187-.391 1.7824-.5586.2648-.1683.4897-.3916.6591-.6547.1688-.2619.2679-.6007.5623-1.7705l1.414-5.6181c.1209-.4804.5555-.8175 1.054-.8175z" fill="#fff" fill-rule="evenodd"/></svg>